<?xml version="1.0" encoding="utf-8"?>
<!-- Generator: Adobe Illustrator 21.0.0, SVG Export Plug-In . SVG Version: 6.00 Build 0)  -->
<svg version="1.1" id="Camada_1" xmlns="http://www.w3.org/2000/svg" xmlns:xlink="http://www.w3.org/1999/xlink" x="0px" y="0px"
	 viewBox="0 0 413.9 318" style="enable-background:new 0 0 413.9 318;" xml:space="preserve">
<style type="text/css">
	.st0{display:none;}
	.st1{display:inline;fill:none;stroke:#000000;stroke-width:16;stroke-linecap:round;stroke-linejoin:round;stroke-miterlimit:10;}
</style>
<g id="layer" class="st0">
	<polyline class="st1" points="207,-40 207,358 358,207 207,358 56,207 	"/>
</g>
<g id="expanded">
	<g>
		<path d="M255,0c2,0,4.1,0.8,5.7,2.3l151,151c0,0,0,0,0,0c0,0,0,0,0,0c1.4,1.4,2.2,3.2,2.3,5.1c0,0.5,0,1,0,1.6
			c-0.2,1.5-0.8,3-1.9,4.2c-0.1,0.2-0.3,0.3-0.4,0.5l-151,151c-3.1,3.1-8.2,3.1-11.3,0c-3.1-3.1-3.1-8.2,0-11.3L386.7,167H8
			c-4.4,0-8-3.6-8-8s3.6-8,8-8h378.7L249.3,13.7C247.8,12.1,247,10,247,8s0.8-4.1,2.3-5.7C250.9,0.8,253,0,255,0z"/>
	</g>
</g>
</svg>
